<mxfile host="Electron" modified="2023-11-15T10:15:36.678Z" agent="Mozilla/5.0 (Windows NT 10.0; Win64; x64) AppleWebKit/537.36 (KHTML, like Gecko) draw.io/22.0.3 Chrome/114.0.5735.289 Electron/25.8.4 Safari/537.36" etag="l_R0Q0UYhGHzMTVdy7oF" version="22.0.3" type="device">
  <diagram name="Seite-1" id="93TVLc7L8p7bn_QIPQ8A">
    <mxGraphModel dx="384" dy="591" grid="1" gridSize="10" guides="1" tooltips="1" connect="1" arrows="1" fold="1" page="0" pageScale="1" pageWidth="827" pageHeight="1169" math="0" shadow="0">
      <root>
        <mxCell id="0" />
        <mxCell id="1" parent="0" />
        <mxCell id="yOW1kEfPnBqJR3KdV8Px-55" value="" style="group" vertex="1" connectable="0" parent="1">
          <mxGeometry x="520" y="320" width="280" height="400" as="geometry" />
        </mxCell>
        <mxCell id="yOW1kEfPnBqJR3KdV8Px-1" value="" style="endArrow=none;html=1;rounded=0;" edge="1" parent="yOW1kEfPnBqJR3KdV8Px-55">
          <mxGeometry width="50" height="50" relative="1" as="geometry">
            <mxPoint x="40" y="120" as="sourcePoint" />
            <mxPoint x="40" y="40" as="targetPoint" />
          </mxGeometry>
        </mxCell>
        <mxCell id="yOW1kEfPnBqJR3KdV8Px-2" value="" style="endArrow=none;html=1;rounded=0;" edge="1" parent="yOW1kEfPnBqJR3KdV8Px-55">
          <mxGeometry width="50" height="50" relative="1" as="geometry">
            <mxPoint x="40" y="360" as="sourcePoint" />
            <mxPoint x="40" y="280" as="targetPoint" />
          </mxGeometry>
        </mxCell>
        <mxCell id="yOW1kEfPnBqJR3KdV8Px-3" value="" style="endArrow=none;html=1;rounded=0;" edge="1" parent="yOW1kEfPnBqJR3KdV8Px-55">
          <mxGeometry width="50" height="50" relative="1" as="geometry">
            <mxPoint x="160" y="40" as="sourcePoint" />
            <mxPoint x="40" y="40" as="targetPoint" />
          </mxGeometry>
        </mxCell>
        <mxCell id="yOW1kEfPnBqJR3KdV8Px-4" value="" style="endArrow=none;html=1;rounded=0;" edge="1" parent="yOW1kEfPnBqJR3KdV8Px-55">
          <mxGeometry width="50" height="50" relative="1" as="geometry">
            <mxPoint x="40" y="120" as="sourcePoint" />
            <mxPoint x="120" y="200" as="targetPoint" />
          </mxGeometry>
        </mxCell>
        <mxCell id="yOW1kEfPnBqJR3KdV8Px-5" value="" style="endArrow=none;html=1;rounded=0;" edge="1" parent="yOW1kEfPnBqJR3KdV8Px-55">
          <mxGeometry width="50" height="50" relative="1" as="geometry">
            <mxPoint x="40" y="280" as="sourcePoint" />
            <mxPoint x="120" y="200" as="targetPoint" />
          </mxGeometry>
        </mxCell>
        <mxCell id="yOW1kEfPnBqJR3KdV8Px-6" value="" style="endArrow=none;html=1;rounded=0;" edge="1" parent="yOW1kEfPnBqJR3KdV8Px-55">
          <mxGeometry width="50" height="50" relative="1" as="geometry">
            <mxPoint x="160" y="360" as="sourcePoint" />
            <mxPoint x="40" y="360" as="targetPoint" />
          </mxGeometry>
        </mxCell>
        <mxCell id="yOW1kEfPnBqJR3KdV8Px-7" value="" style="endArrow=none;html=1;rounded=0;" edge="1" parent="yOW1kEfPnBqJR3KdV8Px-55">
          <mxGeometry width="50" height="50" relative="1" as="geometry">
            <mxPoint x="240" y="280" as="sourcePoint" />
            <mxPoint x="240" y="120" as="targetPoint" />
          </mxGeometry>
        </mxCell>
        <mxCell id="yOW1kEfPnBqJR3KdV8Px-8" value="" style="endArrow=none;html=1;rounded=0;" edge="1" parent="yOW1kEfPnBqJR3KdV8Px-55">
          <mxGeometry width="50" height="50" relative="1" as="geometry">
            <mxPoint x="160" y="40" as="sourcePoint" />
            <mxPoint x="240" y="120" as="targetPoint" />
          </mxGeometry>
        </mxCell>
        <mxCell id="yOW1kEfPnBqJR3KdV8Px-9" value="" style="endArrow=none;html=1;rounded=0;" edge="1" parent="yOW1kEfPnBqJR3KdV8Px-55">
          <mxGeometry width="50" height="50" relative="1" as="geometry">
            <mxPoint x="240" y="280" as="sourcePoint" />
            <mxPoint x="160" y="360" as="targetPoint" />
          </mxGeometry>
        </mxCell>
        <mxCell id="yOW1kEfPnBqJR3KdV8Px-11" value="" style="endArrow=none;html=1;rounded=0;" edge="1" parent="yOW1kEfPnBqJR3KdV8Px-55">
          <mxGeometry width="50" height="50" relative="1" as="geometry">
            <mxPoint x="40" y="80" as="sourcePoint" />
            <mxPoint y="80" as="targetPoint" />
          </mxGeometry>
        </mxCell>
        <mxCell id="yOW1kEfPnBqJR3KdV8Px-12" value="" style="endArrow=none;html=1;rounded=0;" edge="1" parent="yOW1kEfPnBqJR3KdV8Px-55">
          <mxGeometry width="50" height="50" relative="1" as="geometry">
            <mxPoint x="40" y="320" as="sourcePoint" />
            <mxPoint y="320" as="targetPoint" />
          </mxGeometry>
        </mxCell>
        <mxCell id="yOW1kEfPnBqJR3KdV8Px-13" value="" style="endArrow=none;html=1;rounded=0;" edge="1" parent="yOW1kEfPnBqJR3KdV8Px-55">
          <mxGeometry width="50" height="50" relative="1" as="geometry">
            <mxPoint x="280" y="160" as="sourcePoint" />
            <mxPoint x="240" y="160" as="targetPoint" />
          </mxGeometry>
        </mxCell>
        <mxCell id="yOW1kEfPnBqJR3KdV8Px-14" value="" style="endArrow=none;html=1;rounded=0;" edge="1" parent="yOW1kEfPnBqJR3KdV8Px-55">
          <mxGeometry width="50" height="50" relative="1" as="geometry">
            <mxPoint x="99.80999999999995" as="sourcePoint" />
            <mxPoint x="99.80999999999995" y="40" as="targetPoint" />
          </mxGeometry>
        </mxCell>
        <mxCell id="yOW1kEfPnBqJR3KdV8Px-16" value="OPA" style="text;html=1;strokeColor=none;fillColor=none;align=center;verticalAlign=middle;whiteSpace=wrap;rounded=0;" vertex="1" parent="yOW1kEfPnBqJR3KdV8Px-55">
          <mxGeometry x="40" y="70" width="40" height="20" as="geometry" />
        </mxCell>
        <mxCell id="yOW1kEfPnBqJR3KdV8Px-17" value="OPB" style="text;html=1;strokeColor=none;fillColor=none;align=center;verticalAlign=middle;whiteSpace=wrap;rounded=0;" vertex="1" parent="yOW1kEfPnBqJR3KdV8Px-55">
          <mxGeometry x="40" y="310" width="40" height="20" as="geometry" />
        </mxCell>
        <mxCell id="yOW1kEfPnBqJR3KdV8Px-18" value="" style="endArrow=none;html=1;rounded=0;" edge="1" parent="yOW1kEfPnBqJR3KdV8Px-55">
          <mxGeometry width="50" height="50" relative="1" as="geometry">
            <mxPoint x="120" as="sourcePoint" />
            <mxPoint x="120" y="40" as="targetPoint" />
          </mxGeometry>
        </mxCell>
        <mxCell id="yOW1kEfPnBqJR3KdV8Px-19" value="" style="endArrow=none;html=1;rounded=0;" edge="1" parent="yOW1kEfPnBqJR3KdV8Px-55">
          <mxGeometry width="50" height="50" relative="1" as="geometry">
            <mxPoint x="140" as="sourcePoint" />
            <mxPoint x="140" y="40" as="targetPoint" />
          </mxGeometry>
        </mxCell>
        <mxCell id="yOW1kEfPnBqJR3KdV8Px-20" value="" style="endArrow=none;html=1;rounded=0;" edge="1" parent="yOW1kEfPnBqJR3KdV8Px-55">
          <mxGeometry width="50" height="50" relative="1" as="geometry">
            <mxPoint x="100" y="360" as="sourcePoint" />
            <mxPoint x="100" y="400" as="targetPoint" />
          </mxGeometry>
        </mxCell>
        <mxCell id="yOW1kEfPnBqJR3KdV8Px-21" value="" style="endArrow=none;html=1;rounded=0;" edge="1" parent="yOW1kEfPnBqJR3KdV8Px-55">
          <mxGeometry width="50" height="50" relative="1" as="geometry">
            <mxPoint x="280" y="240" as="sourcePoint" />
            <mxPoint x="240" y="240" as="targetPoint" />
          </mxGeometry>
        </mxCell>
        <mxCell id="yOW1kEfPnBqJR3KdV8Px-22" value="&lt;font style=&quot;font-size: 12px;&quot;&gt;OPCODE&lt;/font&gt;" style="text;html=1;strokeColor=none;fillColor=none;align=center;verticalAlign=bottom;whiteSpace=wrap;rounded=0;rotation=270;spacing=0;" vertex="1" parent="yOW1kEfPnBqJR3KdV8Px-55">
          <mxGeometry x="87" y="63.860000000000014" width="30" height="11.25" as="geometry" />
        </mxCell>
        <mxCell id="yOW1kEfPnBqJR3KdV8Px-24" value="&lt;font style=&quot;font-size: 12px;&quot;&gt;SUB_OPCODE&lt;/font&gt;" style="text;html=1;strokeColor=none;fillColor=none;align=center;verticalAlign=bottom;whiteSpace=wrap;rounded=0;rotation=270;spacing=0;" vertex="1" parent="yOW1kEfPnBqJR3KdV8Px-55">
          <mxGeometry x="97" y="74.38" width="40" height="20.3" as="geometry" />
        </mxCell>
        <mxCell id="yOW1kEfPnBqJR3KdV8Px-25" value="&lt;font style=&quot;font-size: 12px;&quot;&gt;K&lt;/font&gt;" style="text;html=1;strokeColor=none;fillColor=none;align=center;verticalAlign=bottom;whiteSpace=wrap;rounded=0;rotation=270;spacing=0;spacingBottom=2;" vertex="1" parent="yOW1kEfPnBqJR3KdV8Px-55">
          <mxGeometry x="142" y="43" width="5" height="9.86" as="geometry" />
        </mxCell>
        <mxCell id="yOW1kEfPnBqJR3KdV8Px-26" value="&lt;font style=&quot;font-size: 12px;&quot;&gt;SREG_IN&lt;/font&gt;" style="text;html=1;strokeColor=none;fillColor=none;align=center;verticalAlign=bottom;whiteSpace=wrap;rounded=0;rotation=270;spacing=0;" vertex="1" parent="yOW1kEfPnBqJR3KdV8Px-55">
          <mxGeometry x="86" y="325" width="30" height="11.25" as="geometry" />
        </mxCell>
        <mxCell id="yOW1kEfPnBqJR3KdV8Px-28" value="ERG" style="text;html=1;strokeColor=none;fillColor=none;align=center;verticalAlign=middle;whiteSpace=wrap;rounded=0;" vertex="1" parent="yOW1kEfPnBqJR3KdV8Px-55">
          <mxGeometry x="200" y="150" width="40" height="20" as="geometry" />
        </mxCell>
        <mxCell id="yOW1kEfPnBqJR3KdV8Px-29" value="SREG_OUT" style="text;html=1;strokeColor=none;fillColor=none;align=center;verticalAlign=middle;whiteSpace=wrap;rounded=0;" vertex="1" parent="yOW1kEfPnBqJR3KdV8Px-55">
          <mxGeometry x="160" y="230" width="80" height="20" as="geometry" />
        </mxCell>
      </root>
    </mxGraphModel>
  </diagram>
</mxfile>
